<?xml version="1.0" encoding="utf-8"?>
<!-- Generator: Adobe Illustrator 16.0.0, SVG Export Plug-In . SVG Version: 6.00 Build 0)  -->
<!DOCTYPE svg PUBLIC "-//W3C//DTD SVG 1.1//EN" "http://www.w3.org/Graphics/SVG/1.1/DTD/svg11.dtd">
<svg version="1.1" id="Layer_1" xmlns="http://www.w3.org/2000/svg" xmlns:xlink="http://www.w3.org/1999/xlink" x="0px" y="0px"
	 width="1167px" height="660px" viewBox="0 0 1167 660" enable-background="new 0 0 1167 660" xml:space="preserve">
<image overflow="visible" width="1167" height="660" xlink:href="53E0CD28C113E54A.jpg" >
</image>
<g>
	<line fill="#FFFFFF" x1="407.514" y1="247.126" x2="525.312" y2="247.126"/>
	<g>
		<line fill="none" stroke="#000000" stroke-miterlimit="10" x1="408.599" y1="247.126" x2="524.228" y2="247.126"/>
		<g>
			<polygon points="411.912,251.216 412.594,250.484 408.982,247.127 412.594,243.77 411.912,243.038 407.514,247.127 			"/>
		</g>
		<g>
			<polygon points="520.914,251.216 520.232,250.484 523.844,247.127 520.232,243.77 520.914,243.038 525.312,247.127 			"/>
		</g>
	</g>
</g>
<text transform="matrix(1 0 0 1 452.1982 241.856)" font-family="'Candara'" font-size="12">89cm</text>
<g>
	<line fill="#FFFFFF" x1="398.5" y1="486.381" x2="398.5" y2="254.881"/>
	<g>
		<line fill="none" stroke="#000000" stroke-miterlimit="10" x1="398.5" y1="485.297" x2="398.5" y2="255.965"/>
		<g>
			<polygon points="402.59,481.982 401.857,481.301 398.501,484.912 395.144,481.301 394.411,481.982 398.501,486.381 			"/>
		</g>
		<g>
			<polygon points="402.59,259.279 401.857,259.961 398.501,256.349 395.144,259.961 394.411,259.279 398.501,254.881 			"/>
		</g>
	</g>
</g>
<text transform="matrix(1 0 0 1 361.1533 373.8457)" font-family="'Candara'" font-size="12">179cm</text>
<text transform="matrix(1 0 0 1 332.627 310.3442)" font-family="'Candara'" font-size="12">85cm</text>
<g>
	<line fill="#FFFFFF" x1="328" y1="363.381" x2="328" y2="250.881"/>
	<g>
		<line fill="none" stroke="#000000" stroke-miterlimit="10" x1="328" y1="362.297" x2="328" y2="251.965"/>
		<g>
			<polygon points="332.09,358.982 331.357,358.301 328.001,361.912 324.644,358.301 323.911,358.982 328.001,363.381 			"/>
		</g>
		<g>
			<polygon points="332.09,255.279 331.357,255.961 328.001,252.349 324.644,255.961 323.911,255.279 328.001,250.881 			"/>
		</g>
	</g>
</g>
<g>
	<line fill="#FFFFFF" x1="328" y1="486.346" x2="328" y2="363.381"/>
	<g>
		<line fill="none" stroke="#000000" stroke-miterlimit="10" x1="328" y1="485.262" x2="328" y2="364.465"/>
		<g>
			<polygon points="332.09,481.947 331.357,481.266 328.001,484.877 324.644,481.266 323.911,481.947 328.001,486.346 			"/>
		</g>
		<g>
			<polygon points="332.09,367.779 331.357,368.461 328.001,364.85 324.644,368.461 323.911,367.779 328.001,363.381 			"/>
		</g>
	</g>
</g>
<text transform="matrix(1 0 0 1 332.75 428.0781)" font-family="'Candara'" font-size="12">97cm</text>
<g>
	<line fill="#FFFFFF" x1="217.514" y1="241.856" x2="318" y2="241.856"/>
	<g>
		<line fill="none" stroke="#000000" stroke-miterlimit="10" x1="218.599" y1="241.856" x2="316.916" y2="241.856"/>
		<g>
			<polygon points="221.912,245.946 222.594,245.213 218.982,241.857 222.594,238.5 221.912,237.767 217.514,241.857 			"/>
		</g>
		<g>
			<polygon points="313.602,245.946 312.92,245.213 316.532,241.857 312.92,238.5 313.602,237.767 318,241.857 			"/>
		</g>
	</g>
</g>
<text transform="matrix(1 0 0 1 254.4619 236.3589)" font-family="'Candara'" font-size="12">77cm</text>
<g>
	<line fill="#FFFFFF" x1="201.014" y1="366.855" x2="220.5" y2="366.855"/>
	<g>
		<line fill="none" stroke="#000000" stroke-miterlimit="10" x1="202.099" y1="366.855" x2="219.416" y2="366.855"/>
		<g>
			<polygon points="205.412,370.945 206.094,370.213 202.482,366.856 206.094,363.499 205.412,362.767 201.014,366.856 			"/>
		</g>
		<g>
			<polygon points="216.102,370.945 215.42,370.213 219.032,366.856 215.42,363.499 216.102,362.767 220.5,366.856 			"/>
		</g>
	</g>
</g>
<text transform="matrix(1 0 0 1 198.0889 380.3594)" font-family="'Candara'" font-size="12">15cm</text>
<g>
	<line fill="#FFFFFF" x1="534" y1="489.215" x2="534" y2="413.215"/>
	<g>
		<line fill="none" stroke="#000000" stroke-miterlimit="10" x1="534" y1="488.131" x2="534" y2="414.299"/>
		<g>
			<polygon points="538.09,484.816 537.357,484.135 534.001,487.746 530.644,484.135 529.911,484.816 534.001,489.215 			"/>
		</g>
		<g>
			<polygon points="538.09,417.613 537.357,418.295 534.001,414.684 530.644,418.295 529.911,417.613 534.001,413.215 			"/>
		</g>
	</g>
</g>
<text transform="matrix(1 0 0 1 487.6504 454.4297)" font-family="'Candara'" font-size="12">63cm</text>
<g>
	<line fill="#FFFFFF" x1="534" y1="413.215" x2="534" y2="373.845"/>
	<g>
		<line fill="none" stroke="#000000" stroke-miterlimit="10" x1="534" y1="412.131" x2="534" y2="374.93"/>
		<g>
			<polygon points="538.09,408.816 537.357,408.135 534.001,411.746 530.644,408.135 529.911,408.816 534.001,413.215 			"/>
		</g>
		<g>
			<polygon points="538.09,378.242 537.357,378.925 534.001,375.312 530.644,378.925 529.911,378.242 534.001,373.845 			"/>
		</g>
	</g>
</g>
<text transform="matrix(1 0 0 1 488.1572 396.7441)" font-family="'Candara'" font-size="12">25cm</text>
<g>
	<line fill="#FFFFFF" x1="548.181" y1="443.214" x2="746" y2="443.214"/>
	<g>
		<line fill="none" stroke="#000000" stroke-miterlimit="10" x1="549.266" y1="443.214" x2="744.916" y2="443.214"/>
		<g>
			<polygon points="552.579,447.304 553.261,446.571 549.649,443.215 553.261,439.857 552.579,439.125 548.181,443.215 			"/>
		</g>
		<g>
			<polygon points="741.602,447.304 740.92,446.571 744.531,443.215 740.92,439.857 741.602,439.125 746,443.215 			"/>
		</g>
	</g>
</g>
<text transform="matrix(1 0 0 1 630.8691 437.7617)" font-family="'Candara'" font-size="12">148cm</text>
<g>
	<line fill="#FFFFFF" x1="548.181" y1="467.214" x2="893.499" y2="467.214"/>
	<g>
		<line fill="none" stroke="#000000" stroke-miterlimit="10" x1="549.266" y1="467.214" x2="892.414" y2="467.214"/>
		<g>
			<polygon points="552.579,471.304 553.261,470.571 549.649,467.215 553.261,463.857 552.579,463.125 548.181,467.215 			"/>
		</g>
		<g>
			<polygon points="889.102,471.304 888.419,470.571 892.031,467.215 888.419,463.857 889.102,463.125 893.499,467.215 			"/>
		</g>
	</g>
</g>
<text transform="matrix(1 0 0 1 709.1377 461.7617)" font-family="'Candara'" font-size="12">263cm</text>
<g>
	<line fill="#FFFFFF" x1="764.667" y1="268.463" x2="863.798" y2="268.463"/>
	<g>
		<line fill="none" stroke="#000000" stroke-miterlimit="10" x1="765.752" y1="268.463" x2="862.713" y2="268.463"/>
		<g>
			<polygon points="769.064,272.553 769.747,271.821 766.135,268.464 769.747,265.107 769.064,264.375 764.667,268.464 			"/>
		</g>
		<g>
			<polygon points="859.4,272.553 858.718,271.821 862.33,268.464 858.718,265.107 859.4,264.375 863.798,268.464 			"/>
		</g>
	</g>
</g>
<text transform="matrix(1 0 0 1 800.5742 265.5229)" font-family="'Candara'" font-size="12">74cm</text>
<g>
	<line fill="#FFFFFF" x1="756.667" y1="489.215" x2="756.667" y2="380.358"/>
	<g>
		<line fill="none" stroke="#000000" stroke-miterlimit="10" x1="756.667" y1="488.131" x2="756.667" y2="381.443"/>
		<g>
			<polygon points="760.757,484.816 760.024,484.135 756.668,487.746 753.311,484.135 752.578,484.816 756.668,489.215 			"/>
		</g>
		<g>
			<polygon points="760.757,384.756 760.024,385.438 756.668,381.826 753.311,385.438 752.578,384.756 756.668,380.358 			"/>
		</g>
	</g>
</g>
<text transform="matrix(1 0 0 1 766.2939 438)" font-family="'Candara'" font-size="12">85cm</text>
<g>
	<line fill="#FFFFFF" x1="756.667" y1="380.358" x2="756.667" y2="273.214"/>
	<g>
		<line fill="none" stroke="#000000" stroke-miterlimit="10" x1="756.667" y1="379.273" x2="756.667" y2="274.298"/>
		<g>
			<polygon points="760.757,375.961 760.024,375.278 756.668,378.891 753.311,375.278 752.578,375.961 756.668,380.358 			"/>
		</g>
		<g>
			<polygon points="760.757,277.612 760.024,278.294 756.668,274.682 753.311,278.294 752.578,277.612 756.668,273.214 			"/>
		</g>
	</g>
</g>
<text transform="matrix(1 0 0 1 772.7793 329.9995)" font-family="'Candara'" font-size="12">80cm</text>
<g>
	<line fill="#FFFFFF" x1="652.848" y1="174.127" x2="863.798" y2="174.127"/>
	<g>
		<line fill="none" stroke="#000000" stroke-miterlimit="10" x1="653.932" y1="174.127" x2="862.713" y2="174.127"/>
		<g>
			<polygon points="657.246,178.217 657.928,177.484 654.316,174.128 657.928,170.771 657.246,170.038 652.848,174.128 			"/>
		</g>
		<g>
			<polygon points="859.4,178.217 858.718,177.484 862.33,174.128 858.718,170.771 859.4,170.038 863.798,174.128 			"/>
		</g>
	</g>
</g>
<text transform="matrix(1 0 0 1 743.1934 168.856)" font-family="'Candara'" font-size="12">161cm</text>
<g>
	<line fill="#FFFFFF" x1="642.667" y1="254.881" x2="642.667" y2="178.881"/>
	<g>
		<line fill="none" stroke="#000000" stroke-miterlimit="10" x1="642.667" y1="253.797" x2="642.667" y2="179.965"/>
		<g>
			<polygon points="646.757,250.482 646.024,249.801 642.668,253.412 639.311,249.801 638.578,250.482 642.668,254.881 			"/>
		</g>
		<g>
			<polygon points="646.757,183.279 646.024,183.961 642.668,180.35 639.311,183.961 638.578,183.279 642.668,178.881 			"/>
		</g>
	</g>
</g>
<text transform="matrix(1 0 0 1 610.6484 220.0942)" font-family="'Candara'" font-size="12">55cm</text>
<g>
	<line fill="#FFFFFF" x1="876" y1="489.595" x2="876" y2="254.881"/>
	<g>
		<line fill="none" stroke="#000000" stroke-miterlimit="10" x1="876" y1="488.51" x2="876" y2="255.965"/>
		<g>
			<polygon points="880.09,485.197 879.357,484.515 876.001,488.127 872.644,484.515 871.911,485.197 876.001,489.595 			"/>
		</g>
		<g>
			<polygon points="880.09,259.279 879.357,259.961 876.001,256.349 872.644,259.961 871.911,259.279 876.001,254.881 			"/>
		</g>
	</g>
</g>
<text transform="matrix(1 0 0 1 877.5293 372.2373)" font-family="'Candara'" font-size="12">185cm</text>
<g>
	<line fill="#FFFFFF" x1="245.181" y1="561.881" x2="863.798" y2="561.881"/>
	<g>
		<line fill="none" stroke="#000000" stroke-miterlimit="10" x1="246.266" y1="561.881" x2="862.713" y2="561.881"/>
		<g>
			<polygon points="249.579,565.971 250.261,565.238 246.649,561.882 250.261,558.524 249.579,557.792 245.181,561.882 			"/>
		</g>
		<g>
			<polygon points="859.4,565.971 858.718,565.238 862.33,561.882 858.718,558.524 859.4,557.792 863.798,561.882 			"/>
		</g>
	</g>
</g>
<text transform="matrix(1 0 0 1 537.6934 575.7617)" font-family="'Candara'" font-size="12">365cm</text>
<g>
	<line fill="#FFFFFF" x1="234.147" y1="545.152" x2="278.479" y2="506.04"/>
	<g>
		<line fill="none" stroke="#000000" stroke-miterlimit="10" x1="234.96" y1="544.435" x2="277.666" y2="506.758"/>
		<g>
			<polygon points="240.151,545.31 240.178,544.309 235.249,544.182 235.736,539.274 234.74,539.177 234.148,545.153 			"/>
		</g>
		<g>
			<polygon points="277.887,512.017 276.891,511.919 277.378,507.012 272.449,506.884 272.476,505.884 278.479,506.041 			"/>
		</g>
	</g>
</g>
<text transform="matrix(1 0 0 1 219.9238 525.5957)" font-family="'Candara'" font-size="12">96cm</text>
<g>
	<line fill="#FFFFFF" x1="12.095" y1="592.88" x2="196.09" y2="486.346"/>
	<g>
		<line fill="none" stroke="#000000" stroke-miterlimit="10" x1="13.034" y1="592.337" x2="195.151" y2="486.889"/>
		<g>
			<polygon points="17.951,594.216 18.174,593.24 13.366,592.145 14.81,587.43 13.853,587.138 12.096,592.881 			"/>
		</g>
		<g>
			<polygon points="194.333,492.089 193.376,491.797 194.82,487.082 190.012,485.986 190.235,485.011 196.09,486.347 			"/>
		</g>
	</g>
</g>
<text transform="matrix(1 0 0 1 61.5703 530.8809)" font-family="'Candara'" font-size="12">247cm</text>
<g>
	<line fill="#FFFFFF" x1="18.692" y1="617.957" x2="1062.066" y2="617.957"/>
	<g>
		<line fill="none" stroke="#000000" stroke-miterlimit="10" x1="19.776" y1="617.957" x2="1060.982" y2="617.957"/>
		<g>
			<polygon points="23.09,622.047 23.772,621.314 20.16,617.958 23.772,614.601 23.09,613.868 18.692,617.958 			"/>
		</g>
		<g>
			<polygon points="1057.668,622.047 1056.986,621.314 1060.598,617.958 1056.986,614.601 1057.668,613.868 1062.066,617.958 			"/>
		</g>
	</g>
</g>
<text transform="matrix(1 0 0 1 523.5981 636.7441)" font-family="'Candara'" font-size="12">530cm</text>
<g>
	<line fill="#FFFFFF" x1="187.085" y1="489.596" x2="187.085" y2="98.881"/>
	<g>
		<line fill="none" stroke="#000000" stroke-miterlimit="10" x1="187.085" y1="488.512" x2="187.085" y2="99.966"/>
		<g>
			<polygon points="191.175,485.197 190.443,484.516 187.086,488.127 183.729,484.516 182.997,485.197 187.086,489.596 			"/>
		</g>
		<g>
			<polygon points="191.175,103.279 190.443,103.961 187.086,100.35 183.729,103.961 182.997,103.279 187.086,98.881 			"/>
		</g>
	</g>
</g>
<text transform="matrix(1 0 0 1 143.8701 297.4526)" font-family="'Candara'" font-size="12">300cm</text>
</svg>
