<?xml version="1.0" encoding="utf-8"?>
<!-- Generator: Adobe Illustrator 16.0.0, SVG Export Plug-In . SVG Version: 6.00 Build 0)  -->
<!DOCTYPE svg PUBLIC "-//W3C//DTD SVG 1.1//EN" "http://www.w3.org/Graphics/SVG/1.1/DTD/svg11.dtd">
<svg version="1.1" id="Layer_1" xmlns="http://www.w3.org/2000/svg" xmlns:xlink="http://www.w3.org/1999/xlink" x="0px" y="0px"
	 width="1162px" height="642px" viewBox="0 0 1162 642" enable-background="new 0 0 1162 642" xml:space="preserve">
<image overflow="visible" width="1162" height="642" xlink:href="7E245F1BD334960A.jpg" >
</image>
<g>
	<line fill="#FFFFFF" x1="467.73" y1="447.713" x2="541.528" y2="454.745"/>
	<g>
		<line fill="none" stroke="#000000" stroke-miterlimit="10" x1="468.81" y1="447.815" x2="540.449" y2="454.643"/>
		<g>
			<polygon points="471.72,452.201 472.469,451.537 469.191,447.854 473.105,444.854 472.496,444.06 467.73,447.714 			"/>
		</g>
		<g>
			<polygon points="536.762,458.399 536.153,457.605 540.066,454.606 536.79,450.922 537.538,450.258 541.528,454.746 			"/>
		</g>
	</g>
</g>
<text transform="matrix(0.9955 0.0949 -0.0949 0.9955 493.9019 478.0488)" font-family="'Candara'" font-size="12">48cm</text>
<g>
	<line fill="#FFFFFF" x1="476.561" y1="379.323" x2="550.359" y2="386.355"/>
	<g>
		<line fill="none" stroke="#000000" stroke-miterlimit="10" x1="477.64" y1="379.426" x2="549.279" y2="386.253"/>
		<g>
			<polygon points="480.551,383.812 481.299,383.147 478.022,379.464 481.936,376.464 481.327,375.67 476.561,379.324 			"/>
		</g>
		<g>
			<polygon points="545.593,390.01 544.983,389.216 548.897,386.217 545.62,382.532 546.369,381.868 550.359,386.356 			"/>
		</g>
	</g>
</g>
<text transform="matrix(0.9955 0.0949 -0.0949 0.9955 493.9019 371.9941)" font-family="'Candara'" font-size="12">48cm</text>
<g>
	<line fill="#FFFFFF" x1="932.333" y1="474.668" x2="932.333" y2="229.692"/>
	<g>
		<line fill="none" stroke="#000000" stroke-miterlimit="10" x1="932.333" y1="473.584" x2="932.333" y2="230.776"/>
		<g>
			<polygon points="936.423,470.27 935.69,469.588 932.334,473.199 928.977,469.588 928.244,470.27 932.334,474.668 			"/>
		</g>
		<g>
			<polygon points="936.423,234.09 935.69,234.772 932.334,231.16 928.977,234.772 928.244,234.09 932.334,229.692 			"/>
		</g>
	</g>
</g>
<text transform="matrix(1 0 0 1 937.9229 355.3945)" font-family="'Candara'" font-size="12">188cm</text>
<text transform="matrix(0.9993 0.037 -0.037 0.9993 856.0381 214.5073)" font-family="'Candara'" font-size="12">82cm</text>
<g>
	<line fill="#FFFFFF" x1="813.347" y1="219.202" x2="926.342" y2="219.289"/>
	<g>
		<line fill="none" stroke="#000000" stroke-miterlimit="10" x1="814.432" y1="219.203" x2="925.258" y2="219.288"/>
		<g>
			<polygon points="817.741,223.295 818.424,222.563 814.814,219.204 818.43,215.849 817.748,215.116 813.347,219.203 			"/>
		</g>
		<g>
			<polygon points="921.94,223.375 921.259,222.642 924.873,219.289 921.265,215.928 921.947,215.196 926.342,219.29 			"/>
		</g>
	</g>
</g>
<text transform="matrix(0.9993 0.037 -0.037 0.9993 698.9688 260.5361)" font-family="'Candara'" font-size="12">151cm</text>
<g>
	<line fill="#FFFFFF" x1="625.349" y1="265.27" x2="802.338" y2="265.407"/>
	<g>
		<line fill="none" stroke="#000000" stroke-miterlimit="10" x1="626.434" y1="265.271" x2="801.254" y2="265.406"/>
		<g>
			<polygon points="629.743,269.363 630.426,268.631 626.816,265.272 630.432,261.917 629.75,261.185 625.349,265.271 			"/>
		</g>
		<g>
			<polygon points="797.937,269.494 797.255,268.761 800.869,265.407 797.261,262.047 797.943,261.315 802.338,265.408 			"/>
		</g>
	</g>
</g>
<text transform="matrix(0.9993 0.037 -0.037 0.9993 699.2637 212.2598)" font-family="'Candara'" font-size="12">165cm</text>
<g>
	<line fill="#FFFFFF" x1="617.351" y1="217.038" x2="813.349" y2="217.19"/>
	<g>
		<line fill="none" stroke="#000000" stroke-miterlimit="10" x1="618.436" y1="217.039" x2="812.264" y2="217.189"/>
		<g>
			<polygon points="621.745,221.131 622.428,220.399 618.818,217.04 622.434,213.686 621.752,212.953 617.351,217.039 			"/>
		</g>
		<g>
			<polygon points="808.947,221.277 808.266,220.544 811.881,217.19 808.271,213.83 808.954,213.098 813.349,217.191 			"/>
		</g>
	</g>
</g>
<g>
	<line fill="#FFFFFF" x1="828.333" y1="396.513" x2="828.333" y2="274.025"/>
	<g>
		<line fill="none" stroke="#000000" stroke-miterlimit="10" x1="828.333" y1="395.428" x2="828.333" y2="275.11"/>
		<g>
			<polygon points="832.423,392.115 831.69,391.433 828.334,395.045 824.977,391.433 824.244,392.115 828.334,396.513 			"/>
		</g>
		<g>
			<polygon points="832.423,278.423 831.69,279.105 828.334,275.494 824.977,279.105 824.244,278.423 828.334,274.025 			"/>
		</g>
	</g>
</g>
<g>
	<line fill="#FFFFFF" x1="828.333" y1="466.668" x2="828.333" y2="396.513"/>
	<g>
		<line fill="none" stroke="#000000" stroke-miterlimit="10" x1="828.333" y1="465.584" x2="828.333" y2="397.598"/>
		<g>
			<polygon points="832.423,462.27 831.69,461.588 828.334,465.199 824.977,461.588 824.244,462.27 828.334,466.668 			"/>
		</g>
		<g>
			<polygon points="832.423,400.91 831.69,401.593 828.334,397.98 824.977,401.593 824.244,400.91 828.334,396.513 			"/>
		</g>
	</g>
</g>
<text transform="matrix(1 0 0 1 835.0537 338.4824)" font-family="'Candara'" font-size="12">95cm</text>
<text transform="matrix(1 0 0 1 835.042 434.8047)" font-family="'Candara'" font-size="12">58cm</text>
</svg>
